<?xml version="1.0" encoding="utf-8"?>
<!-- Generator: Adobe Illustrator 22.0.1, SVG Export Plug-In . SVG Version: 6.00 Build 0)  -->
<svg version="1.1" xmlns="http://www.w3.org/2000/svg" xmlns:xlink="http://www.w3.org/1999/xlink" x="0px" y="0px"
	 viewBox="0 0 512 512" style="enable-background:new 0 0 512 512;" xml:space="preserve">
	 
	 	
<style type="text/css">
	.st0{display:none;}
	.st1{display:inline;fill:none;stroke:#FFFFFF;stroke-width:87;stroke-miterlimit:10;}
	.st2{display:none;fill:#8654C6;}
	.st3{fill:#6B3792;stroke:#6B3792;stroke-miterlimit:10;}
	.st4{fill:none;stroke:#6B3792;stroke-width:21;stroke-miterlimit:10;}
	.st5{fill:none;stroke:#FFFFFF;stroke-width:18;stroke-miterlimit:10;}
	.st6{fill:#FFFFFF;stroke:#FFFFFF;stroke-width:1.000000e-02;stroke-miterlimit:10;}
	.st7{display:inline;fill:none;stroke:#FFFFFF;stroke-width:9.6792;stroke-miterlimit:10;}
	.st8{fill:#6B3792;}
	.st9{fill:#FFFFFF;}
	.st10{fill:none;stroke:#FFFFFF;stroke-width:19;stroke-miterlimit:10;}
	.st11{fill:none;stroke:#6B3792;stroke-width:13;stroke-miterlimit:10;}


	.bounce{
		animation: jello 2s 6;
        transform-origin: center;

	}
	.background-v{
		stroke-dasharray: 1000;
		stroke-dashoffset: 0;
		animation: dash 3s linear alternate 6;
	}

		@keyframes dash {
		  from {
		    stroke-dashoffset: 0;
		  }
		  to {
		    stroke-dashoffset: 1000;
		  }
	}

		@keyframes jello {
		  11.1% {
		    transform: none
		  }
		  22.2% {
		    transform: skewX(-12.5deg) skewY(-12.5deg)
		  }
		  33.3% {
		    transform: skewX(6.25deg) skewY(6.25deg)
		  }
		  44.4% {
		    transform: skewX(-3.125deg) skewY(-3.125deg)
		  }
		  55.5% {
		    transform: skewX(1.5625deg) skewY(1.5625deg)
		  }
		  66.6% {
		    transform: skewX(-0.78125deg) skewY(-0.78125deg)
		  }
		  77.7% {
		    transform: skewX(0.390625deg) skewY(0.390625deg)
		  }
		  88.8% {
		    transform: skewX(-0.1953125deg) skewY(-0.1953125deg)
		  }
		  100% {
		    transform: none
		  }
		}

</style>
<g id="Calque_8" class="st0">
	<rect x="17.5" y="18.5" class="st1" width="476" height="476"/>
</g>
<g id="Calque_6">
	<rect class="st2" width="512" height="512"/>
	<circle class="st3" cx="62.5" cy="69" r="10"/>
</g>
<g id="G_mauve">
	<g>
		<path class="st4  background-v" d="M62,69h153.3c5.5,0,10,4.5,10,10v8c0,5.5-4.5,10-10,10H81c-5.5,0-10,4.5-10,10v121c0,5.5,4.5,10,10,10h134
			c5.5,0,10-4.5,10-10v-64c0-5.5-4.5-10-10-10h-67"/>
	</g>
	<circle class="st3" cx="149" cy="154" r="10"/>
</g>
<g id="G_blanc ">
	<g>
		<g id="G">
			<path class="st5 background-v" d="M76,77h153.3c5.5,0,10,4.5,10,10v8c0,5.5-4.5,10-10,10H95c-5.5,0-10,4.5-10,10v121c0,5.5,4.5,10,10,10h134
				c5.5,0,10-4.5,10-10v-64c0-5.5-4.5-10-10-10h-67"/>
		</g>
		<circle class="st6" cx="76.5" cy="77" r="9"/>
		<circle class="st6" cx="162" cy="162" r="9"/>
	</g>
</g>
<g id="Calque_4">
</g>
<g id="Calque_5">
</g>
<g id="Calque_3">
</g>
<g id="Calque_1" class="st0">
	<g>
		<path class="st7" d="M303.8,310.9h-75.5c-2.4,0-3.1,1.5-1.6,3.4l38.4,47c1.5,1.9,4.1,1.9,5.6,0l22.9-27.3c1.6-1.9,0.8-3.4-1.6-3.4
			h-27.5"/>
	</g>
</g>
<g id="Calque_2">
	<g id="point_O_mauve">
		<path class="st8" d="M365.8,215.7c0,2.2-1.8,4-4,4h-6.2c-2.2,0-4-1.8-4-4V205c0-2.2,1.8-4,4-4h6.2c2.2,0,4,1.8,4,4V215.7z"/>
	</g>
	<g id="point_O_blanc bounce">
		<path class="st9 bounce" d="M371,220c0,2.2-1.8,4-4,4h-6.2c-2.2,0-4-1.8-4-4v-10.7c0-2.2,1.8-4,4-4h6.2c2.2,0,4,1.8,4,4V220z"/>
	</g>
	<g id="O">
		<path class="st10" d="M441,244.6c0,0.7-0.6,1.3-1.3,1.3H287.2c-0.7,0-1.3-0.6-1.3-1.3V78.6c0-0.7,0.6-1.3,1.3-1.3h152.5
			c0.7,0,1.3,0.6,1.3,1.3V244.6z"/>
	</g>
	<g id="triangle ">
		<path class="st11 background-v" d="M302.1,295.3h-79.5c-2.4,0-3.1,1.5-1.6,3.4l38.4,47c1.5,1.9,4.1,1.9,5.6,0l22.9-27.3
			c1.6-1.9,0.8-3.4-1.6-3.4h-27.5"/>
	</g>
	<g id="Calque_7">
	</g>
	<g id="DESIGN_blanc">
		<path class="st9" d="M59.9,391.8h32.6c7.6,0,14.3,1.4,20.1,4.2c5.8,2.8,10.4,6.8,13.6,12c3.2,5.2,4.8,11.3,4.8,18.2
			s-1.6,13-4.8,18.2c-3.2,5.2-7.8,9.2-13.6,12c-5.8,2.8-12.5,4.2-20.1,4.2H59.9V391.8z M91.7,445.2c5.9,0,10.7-1.7,14.2-5
			c3.6-3.3,5.4-8,5.4-13.9c0-5.9-1.8-10.5-5.4-13.9c-3.6-3.4-8.3-5-14.2-5H79.4v37.8H91.7z"/>
		<path class="st9" d="M196.6,445.7v15.1h-55.4v-69h54.1v15.1h-34.8v11.6h30.6v14.6h-30.6v12.6H196.6z"/>
		<path class="st9" d="M215.5,460.1c-5.3-1.4-9.5-3.2-12.8-5.5l6.4-14.4c3.1,2,6.7,3.7,10.7,4.9c4.1,1.2,8.1,1.9,12,1.9
			c7.5,0,11.2-1.9,11.2-5.6c0-2-1.1-3.4-3.2-4.4c-2.1-1-5.6-2-10.3-3c-5.2-1.1-9.5-2.3-13-3.6c-3.5-1.3-6.5-3.3-9-6.2
			c-2.5-2.8-3.7-6.6-3.7-11.4c0-4.2,1.1-8,3.4-11.4c2.3-3.4,5.7-6.1,10.3-8c4.6-2,10.2-3,16.8-3c4.5,0,9,0.5,13.4,1.5
			c4.4,1,8.3,2.5,11.6,4.5l-6,14.5c-6.6-3.5-12.9-5.3-19.1-5.3c-3.9,0-6.7,0.6-8.5,1.7c-1.8,1.1-2.7,2.6-2.7,4.5
			c0,1.8,1,3.2,3.2,4.1c2.1,0.9,5.5,1.9,10.1,2.9c5.3,1.1,9.6,2.3,13.1,3.6c3.4,1.3,6.4,3.3,9,6.1c2.5,2.8,3.8,6.6,3.8,11.4
			c0,4.1-1.1,7.9-3.4,11.2c-2.3,3.3-5.7,6-10.3,8c-4.6,2-10.2,3-16.7,3C226.1,462.2,220.7,461.5,215.5,460.1z"/>
		<path class="st9" d="M271.2,391.8h19.5v69h-19.5V391.8z"/>
		<path class="st9" d="M350.8,424.8h17.2v28.6c-3.9,2.8-8.5,5-13.6,6.5s-10.2,2.3-15.4,2.3c-7.2,0-13.7-1.5-19.5-4.6
			c-5.8-3.1-10.3-7.3-13.6-12.8c-3.3-5.5-4.9-11.6-4.9-18.5s1.6-13.1,4.9-18.5c3.3-5.5,7.8-9.7,13.7-12.8c5.8-3.1,12.4-4.6,19.8-4.6
			c6.4,0,12.2,1.1,17.3,3.3c5.1,2.2,9.4,5.3,12.8,9.4l-12.4,11.2c-4.7-5.1-10.2-7.7-16.7-7.7c-5.9,0-10.7,1.8-14.3,5.4
			c-3.6,3.6-5.4,8.4-5.4,14.3c0,3.8,0.8,7.2,2.5,10.2c1.6,3,3.9,5.3,6.9,7c3,1.7,6.3,2.5,10.1,2.5c3.7,0,7.3-0.8,10.5-2.3V424.8z"/>
		<path class="st9" d="M446.1,391.8v69H430L399.6,424v36.7h-19.1v-69h16.1l30.4,36.7v-36.7H446.1z"/>
	</g>
	<g id="DESIGN_mauve">
		<path class="st8" d="M56.8,386.5h32.4c7.5,0,14.1,1.4,19.9,4.2c5.8,2.8,10.3,6.8,13.5,11.9c3.2,5.2,4.8,11.2,4.8,18.1
			c0,6.9-1.6,12.9-4.8,18.1c-3.2,5.2-7.7,9.1-13.5,11.9c-5.8,2.8-12.5,4.2-19.9,4.2H56.8V386.5z M88.4,439.5c5.9,0,10.6-1.7,14.1-5
			c3.6-3.3,5.3-7.9,5.3-13.8c0-5.9-1.8-10.5-5.3-13.8c-3.6-3.3-8.3-5-14.1-5H76.2v37.5H88.4z"/>
		<path class="st8" d="M192.6,440v15h-55v-68.4h53.7v15h-34.5V413h30.4v14.5h-30.4V440H192.6z"/>
		<path class="st8" d="M211.2,454.3c-5.2-1.4-9.5-3.2-12.7-5.5l6.4-14.3c3.1,2,6.6,3.7,10.7,4.9c4,1.2,8,1.9,11.9,1.9
			c7.4,0,11.1-1.9,11.1-5.6c0-2-1.1-3.4-3.2-4.4c-2.1-0.9-5.5-1.9-10.2-3c-5.2-1.1-9.5-2.3-12.9-3.6c-3.5-1.3-6.4-3.3-8.9-6.1
			c-2.5-2.8-3.7-6.6-3.7-11.3c0-4.2,1.1-7.9,3.4-11.3c2.3-3.4,5.7-6,10.2-8c4.5-2,10.1-2.9,16.7-2.9c4.5,0,8.9,0.5,13.3,1.5
			c4.4,1,8.2,2.5,11.5,4.4l-6,14.4c-6.5-3.5-12.8-5.3-19-5.3c-3.8,0-6.6,0.6-8.4,1.7c-1.8,1.1-2.6,2.6-2.6,4.4c0,1.8,1,3.2,3.1,4.1
			c2.1,0.9,5.4,1.9,10.1,2.8c5.2,1.1,9.5,2.3,13,3.6c3.4,1.3,6.4,3.3,8.9,6.1c2.5,2.8,3.8,6.5,3.8,11.3c0,4.1-1.1,7.8-3.4,11.1
			c-2.3,3.3-5.7,6-10.3,8c-4.6,2-10.1,3-16.6,3C221.8,456.4,216.5,455.7,211.2,454.3z"/>
		<path class="st8" d="M266.6,386.5H286V455h-19.4V386.5z"/>
		<path class="st8" d="M345.6,419.3h17.1v28.4c-3.9,2.8-8.4,5-13.5,6.5s-10.2,2.2-15.3,2.2c-7.2,0-13.6-1.5-19.4-4.5
			c-5.7-3-10.2-7.3-13.5-12.7c-3.3-5.4-4.9-11.5-4.9-18.4s1.6-13,4.9-18.4c3.3-5.4,7.8-9.6,13.6-12.7c5.8-3,12.4-4.5,19.7-4.5
			c6.4,0,12.1,1.1,17.2,3.2s9.3,5.2,12.7,9.3L352,408.8c-4.6-5.1-10.2-7.6-16.6-7.6c-5.9,0-10.6,1.8-14.2,5.3
			c-3.6,3.6-5.4,8.3-5.4,14.2c0,3.8,0.8,7.2,2.4,10.1c1.6,3,3.9,5.3,6.8,6.9s6.3,2.5,10.1,2.5c3.7,0,7.2-0.7,10.5-2.2V419.3z"/>
		<path class="st8" d="M440.2,386.5V455h-15.9L394,418.5V455h-19v-68.4H391l30.2,36.5v-36.5H440.2z"/>
	</g>
</g>
</svg>
