<?xml version="1.0" encoding="utf-8"?>
<!-- Generator: Adobe Illustrator 22.0.1, SVG Export Plug-In . SVG Version: 6.00 Build 0)  -->
<svg version="1.1" xmlns="http://www.w3.org/2000/svg" xmlns:xlink="http://www.w3.org/1999/xlink" x="0px" y="0px"
	 viewBox="0 0 458 228.7" style="enable-background:new 0 0 458 228.7;" xml:space="preserve">
<style type="text/css">
	.st0{fill:#016CF6;}
	.st1{fill:#F5B917;}
	.st2{fill:#016CF6;stroke:#016CF6;stroke-width:0.7552;stroke-miterlimit:10;}
	.st3{fill:#016CF6;stroke:#016CF6;stroke-width:0.6918;stroke-miterlimit:10;}
	.st4{fill:#016CF6;stroke:#016CF6;stroke-width:0.2645;stroke-miterlimit:10;}
	.st5{fill:#FFFFFF;}

	.bounce{
		animation: jello 2s infinite;
        transform-origin: center;

	}
	.bounce1{
		animation: jello 2s infinite 0.5s;
        transform-origin: center;

	}

	.bounce2{
		animation: jello 2s infinite 0.7s;
        transform-origin: center;

	}
	.bounce3{
		animation: jello 2s infinite 1s;
        transform-origin: center;

	}

	.bounce4{
		animation: jello 2s infinite 1.5s;
        transform-origin: center;

	}
	@keyframes jello {
		  11.1% {
		    transform: none
		  }
		  22.2% {
		    transform: skewX(-12.5deg) skewY(-12.5deg)
		  }
		  33.3% {
		    transform: skewX(6.25deg) skewY(6.25deg)
		  }
		  44.4% {
		    transform: skewX(-3.125deg) skewY(-3.125deg)
		  }
		  55.5% {
		    transform: skewX(1.5625deg) skewY(1.5625deg)
		  }
		  66.6% {
		    transform: skewX(-0.78125deg) skewY(-0.78125deg)
		  }
		  77.7% {
		    transform: skewX(0.390625deg) skewY(0.390625deg)
		  }
		  88.8% {
		    transform: skewX(-0.1953125deg) skewY(-0.1953125deg)
		  }
		  100% {
		    transform: none
		  }
		}







		.background-v{
		-webkit-animation: swing-in-bottom-fwd 2s cubic-bezier(0.175, 0.885, 0.320, 1.275) both infinite;
	        animation: swing-in-bottom-fwd 2s cubic-bezier(0.175, 0.885, 0.320, 1.275) both infinite;
	}
 */
@-webkit-keyframes swing-in-bottom-fwd {
  0% {
    -webkit-transform: rotateX(100deg);
            transform: rotateX(100deg);
    -webkit-transform-origin: bottom;
            transform-origin: bottom;
    opacity: 0;
  }
  100% {
    -webkit-transform: rotateX(0);
            transform: rotateX(0);
    -webkit-transform-origin: bottom;
            transform-origin: bottom;
    opacity: 1;
  }
}
@keyframes swing-in-bottom-fwd {
  0% {
    -webkit-transform: rotateX(100deg);
            transform: rotateX(100deg);
    -webkit-transform-origin: bottom;
            transform-origin: bottom;
    opacity: 0;
  }
  100% {
    -webkit-transform: rotateX(0);
            transform: rotateX(0);
    -webkit-transform-origin: bottom;
            transform-origin: bottom;
    opacity: 1;
  }
}

</style>
<g id="Calque_3">
</g>
<g id="Calque_1">
	<path id="localisation " class="st0 bounce" d="M377.5,118.7c-3.7-10.1-14.9-15.4-25.1-11.7c-10.1,3.7-15.4,14.9-11.7,25.1
		c0.7,2,1.7,3.8,3,5.4c0,0,4.1,6.4,27.4,21.3c4.7-15.1,6.4-24.1,7-29C379,126.2,378.8,122.4,377.5,118.7L377.5,118.7z M363.2,137.3
		c-6.4,2.3-13.5-1-15.9-7.4c-2.3-6.4,1-13.5,7.4-15.9c6.4-2.3,13.5,1,15.9,7.4C372.9,127.8,369.6,134.9,363.2,137.3L363.2,137.3z
		 M363.2,137.3"/>
	<circle id="point_jaune" class="st1 bounce" cx="358.8" cy="125.5" r="9"/>
	<g>
		<path id="B_bleu" class="st0" d="M4.9,117.7c7.5-1.4,13.7-2.4,18.6-2.9c4.9-0.5,8.7-0.7,11.6-0.7c2.8,0,5.4,0.3,7.6,0.8
			c2.2,1,4,2,5.4,3c1.4,1,2.7,2.2,4,3.8c1.3,1.5,2,3.3,2.3,5.3c0.3,2-0.1,4.3-1.2,6.8c-1.1,2.5-3.3,5.3-6.5,8.3
			c4.5,2.3,7.7,4.9,9.6,7.6c1.9,2.7,2.9,5.3,3.1,8c0.2,2.6-0.2,5.1-1.2,7.5c-1,2.4-2.1,4.5-3.4,6.3c-1.3,1.8-3.1,3.8-5.2,6
			c-0.1,0.1-0.4,0.3-1.1,0.7c-0.7,0.4-2,0.9-3.9,1.4c-1.9,0.6-4.5,1-7.8,1.4c-3.3,0.4-7.5,0.5-12.6,0.5c-5.2,0-11.3-0.4-18.5-1.2
			L4.9,117.7z M37.8,157.3c-0.1-0.5-0.3-1.2-0.7-1.9c-0.4-0.7-1.1-1.3-2-1.7c-0.9-0.4-2.2-0.6-3.8-0.4c-1.6,0.2-3.7,0.9-6.3,2.1
			l1,8.4c2.9,0.3,5.2,0.1,6.8-0.4c1.6-0.5,2.8-1.2,3.5-2c0.7-0.8,1.2-1.9,1.5-3.2C37.9,158.2,37.9,157.9,37.8,157.3z M33.2,133
			c-0.4-0.6-1.1-0.9-2.2-1.1c-1.1-0.2-2.7,0.1-4.8,1l-0.3,8.4c1.7,0.3,3,0.1,4-0.4c1-0.6,1.8-1.2,2.4-2c0.6-0.8,1-1.8,1.4-3.2
			C33.7,134.4,33.6,133.5,33.2,133z"/>
		<path id="R_bleu" class="st0" d="M114.8,168.8l-12.4,14L83,168.5l-0.2,13.7l-19.4-2l-1.3-62.5c10.1-1.2,19.9-2.2,29.3-3.1
			c5-0.5,9.2-0.2,12.5,1.1c3.3,1.3,5.9,3.1,7.6,5.6c1.7,2.4,2.7,5.3,3,8.5s-0.2,6.5-1.4,9.9c-1.2,3.4-3,6.7-5.6,9.9
			c-2.5,3.2-5.7,6-9.4,8.3L114.8,168.8z M81.8,135.6L81,148.4c1.9-0.4,3.6-1,5-1.8c1.4-0.8,2.6-1.7,3.6-2.6c1-0.9,1.7-1.8,2.2-2.6
			c0.5-0.8,0.8-1.5,0.9-2c0-0.1,0-0.3,0.1-0.9c0.1-0.5,0-1.2-0.2-1.9c-0.2-0.7-0.6-1.4-1.4-1.9c-0.7-0.5-1.8-0.7-3.3-0.7
			C86.4,134,84.3,134.6,81.8,135.6z"/>
		<path id="I_jaune" class="st1 bounce" d="M140.7,118.5l-3.3,64.7l-21,2.4l0.8-64.3L140.7,118.5z"/>
		<path id="I_bleu" class="st0" d="M145.4,113.5l-3.3,64.7l-21,2.4l0.8-64.3L145.4,113.5z"/>
		<path id="N_bleu" class="st0" d="M150.8,115l30.6,25.4l0.7-26.5l23.8,1.6l-3.7,61l-30.6-15.3l1.1,18.9l-23,1.4L150.8,115z"/>
		<path id="G_bleu" class="st0" d="M271.6,142.8l-34.9,4.4l-1.3,12.9l11.4-2.2c-0.6,1.5-1.6,2.9-2.9,4.1c-1.3,1.2-2.8,2.2-4.4,2.9
			c-1.6,0.7-3.2,1.1-4.9,1.2c-1.7,0.1-3.2-0.2-4.5-0.9c-1.4-0.7-2.5-1.8-3.4-3.4c-0.9-1.6-1.3-3.7-1.2-6.3c0-2.8,0.6-5.4,1.7-7.6
			c1.1-2.2,2.6-4.1,4.4-5.7c1.8-1.5,3.7-2.7,5.8-3.6c2.1-0.9,4.2-1.3,6.2-1.3c2,0,3.9,0.4,5.5,1.2c1.6,0.8,2.8,2.1,3.6,4l15-15.8
			c-2.8-2.8-5.7-4.9-8.6-6.5c-2.9-1.6-5.5-2.7-8-3.4c-2.5-0.7-4.7-1.1-6.6-1.2c-2-0.1-3.5-0.1-4.5,0c-1,0.1-1.6,0.2-1.7,0.2
			c-3.8,0.8-7.5,2.1-11,4c-3.5,1.9-6.6,4.1-9.4,6.8c-2.8,2.6-5.2,5.6-7.2,8.9s-3.5,6.8-4.4,10.5c-0.9,3.7-1.2,7.5-1,11.5
			c0.3,4,1.3,8,3.1,12c0.9,2.1,2,3.9,3.3,5.6c1.7-1.4,3.8-2.2,6.1-2.2c5.2,0,9.5,4.3,9.5,9.5c0,0.7-0.1,1.3-0.2,2
			c1.8,0.4,3.7,0.6,5.6,0.7c3.4,0.1,6.6-0.3,9.8-1c1.1-0.3,2.2-0.6,3.2-0.9c-0.3-0.9-0.4-1.8-0.4-2.7c0-5.2,4.3-9.5,9.5-9.5
			c2.2,0,4.3,0.8,5.9,2.1c0.8-1,1.8-2.4,3-4c1.5-2.2,2.9-4.6,4.3-7.3c1.4-2.7,2.4-5.7,3.2-9C271.9,149.5,272.1,146.1,271.6,142.8z"
			/>
		<path id="G_jaune" class="st1" d="M273.6,140.8l-34.9,4.4l-1.3,12.9l11.4-2.2c-0.6,1.5-1.6,2.9-2.9,4.1c-1.3,1.2-2.8,2.2-4.4,2.9
			c-1.6,0.7-3.2,1.1-4.9,1.2c-1.7,0.1-3.2-0.2-4.5-0.9c-1.4-0.7-2.5-1.8-3.4-3.4c-0.9-1.6-1.3-3.7-1.2-6.3c0-2.8,0.6-5.4,1.7-7.6
			c1.1-2.2,2.6-4.1,4.4-5.7c1.8-1.5,3.7-2.7,5.8-3.6c2.1-0.9,4.2-1.3,6.2-1.3c2,0,3.9,0.4,5.5,1.2c1.6,0.8,2.8,2.1,3.6,4l15-15.8
			c-2.8-2.8-5.7-4.9-8.6-6.5c-2.9-1.6-5.5-2.7-8-3.4c-2.5-0.7-4.7-1.1-6.6-1.2c-2-0.1-3.5-0.1-4.5,0c-1,0.1-1.6,0.2-1.7,0.2
			c-3.8,0.8-7.5,2.1-11,4c-3.5,1.9-6.6,4.1-9.4,6.8c-2.8,2.6-5.2,5.6-7.2,8.9s-3.5,6.8-4.4,10.5c-0.9,3.7-1.2,7.5-1,11.5
			c0.3,4,1.3,8,3.1,12c0.9,2.1,2,3.9,3.3,5.6c1.7-1.4,3.8-2.2,6.1-2.2c5.2,0,9.5,4.3,9.5,9.5c0,0.7-0.1,1.3-0.2,2
			c1.8,0.4,3.7,0.6,5.6,0.7c3.4,0.1,6.6-0.3,9.8-1c1.1-0.3,2.2-0.6,3.2-0.9c-0.3-0.9-0.4-1.8-0.4-2.7c0-5.2,4.3-9.5,9.5-9.5
			c2.2,0,4.3,0.8,5.9,2.1c0.8-1,1.8-2.4,3-4c1.5-2.2,2.9-4.6,4.3-7.3c1.4-2.7,2.4-5.7,3.2-9C273.9,147.5,274.1,144.1,273.6,140.8z"
			/>
		<path id="S_bleu" class="st0" d="M306.6,140.1c1.7,0.7,3.3,1.6,5.1,2.6c1.7,1,3.3,2.1,4.7,3.5c1.4,1.4,2.6,3.1,3.5,5
			c0.9,1.9,1.5,4.3,1.6,6.9c0.2,3.8-0.5,7.1-1.8,10c-1.4,2.9-3.3,5.4-5.9,7.4c-2.5,2-5.6,3.5-9.1,4.6c-3.5,1.1-7.3,1.7-11.4,1.9
			c-1.9,0.1-3.8,0-5.8-0.3c-2-0.2-3.9-0.6-5.8-1.1c-1.9-0.5-3.8-1.1-5.6-1.7c-1.8-0.7-3.5-1.4-5.1-2.1l6.1-17.1
			c0.8,0.3,1.8,0.7,2.9,1.2c1.1,0.5,2.3,1,3.6,1.4c1.3,0.4,2.6,0.8,4,1.1c1.4,0.3,2.7,0.5,4.1,0.4c2-0.1,3.6-0.5,5-1
			c1.4-0.6,2-1.6,2-3c-0.1-0.9-0.5-1.6-1.4-2.1c-0.9-0.5-1.9-1-3.2-1.4c-0.8-0.2-1.9-0.5-3.2-0.9c-1.3-0.4-2.7-0.9-4.2-1.5
			c-1.5-0.6-3-1.4-4.5-2.3c-1.5-0.9-2.9-2-4.2-3.3c-1.3-1.3-2.3-2.8-3.1-4.4c-0.8-1.7-1.3-3.6-1.3-5.8c-0.1-3.7,0.5-7.1,1.9-10
			c1.4-2.9,3.3-5.4,5.7-7.4c2.4-2.1,5.2-3.6,8.4-4.7c3.2-1.1,6.6-1.7,10.2-1.9c3.4-0.2,6.7,0,10,0.5c3.3,0.5,6.4,1.3,9.3,2.5
			l-4.7,18.5c-2.1-0.9-4.1-1.7-5.8-2.3c-1.8-0.6-3.8-1.1-6.2-1.4c-0.7-0.1-1.6-0.2-2.8-0.2c-1.1,0-2.2,0.1-3.3,0.4
			c-1.1,0.2-2,0.6-2.8,1.2c-0.8,0.5-1.2,1.3-1.3,2.2c0,0.4,0.2,0.8,0.6,1c0.4,0.2,0.9,0.4,1.4,0.6c0.6,0.1,1.1,0.2,1.7,0.3
			c0.6,0.1,1.1,0.1,1.4,0.2c1.5,0.3,3.2,0.7,5,1.1C303.8,139,305.3,139.5,306.6,140.1z"/>
	</g>
	<g>
		<path id="M_bleu" class="st0" d="M344.5,154.4l24.8,19.4l7.8-23.4l37.7,47.8l-15.1,19.8l-14.6-23.2l-6.1,21.1l-17.5-16.5l-3,24.8
			l-21-7.4L344.5,154.4z"/>
		<path id="M_jaune" class="st1" d="M348.5,148.4l24.8,19.4l7.8-23.4l37.7,47.8l-15.1,19.8l-14.6-23.2l-6.1,21.1l-17.5-16.5l-2,24.8
			l-21-7.4L348.5,148.4z"/>
		<path id="E_blzu" class="st0" d="M385.1,137.4l33.2-29.3l10.3,17.6l-15.5,12.8l2.3,3.1l11-9.6l7.1,12.2l-10,8.9l2.5,3.6l16.9-15.6
			l13,17.8l-32.7,27.7L385.1,137.4z"/>
	</g>
	<path id="roue_gauche" class="st2" d="M220.6,191c-4.9,1.1-9.7-1.9-10.9-6.8c-0.4-1.9-0.2-3.7,0.4-5.4c-1.9,2.1-2.8,5.1-2.1,8.1
		c1.1,4.9,6,7.9,10.9,6.8c3-0.7,5.3-2.8,6.4-5.5C224.1,189.6,222.5,190.5,220.6,191z"/>
	<path id="roue_droit" class="st3" d="M262.5,180.9c-1.3,4.4-5.9,7-10.3,5.7c-1.7-0.5-3.1-1.5-4.1-2.7c0.8,2.5,2.9,4.5,5.6,5.3
		c4.4,1.3,9-1.3,10.3-5.7c0.8-2.7,0.1-5.5-1.5-7.5C262.9,177.5,263,179.2,262.5,180.9z"/>
	<path id="clou_droit" class="st4" d="M252.9,179.8c-0.4-1.7,0.6-3.4,2.3-3.8c0.7-0.2,1.3-0.1,1.9,0.1c-0.7-0.7-1.8-1-2.9-0.7
		c-1.7,0.4-2.8,2.1-2.3,3.8c0.3,1,1,1.9,1.9,2.2C253.4,181,253,180.5,252.9,179.8z"/>
	<path id="clou_gauche" class="st4" d="M215.9,183.8c-0.4-1.7,0.6-3.4,2.3-3.8c0.7-0.2,1.3-0.1,1.9,0.1c-0.7-0.7-1.8-1-2.9-0.7
		c-1.7,0.4-2.8,2.1-2.3,3.8c0.3,1,1,1.9,1.9,2.2C216.4,185,216,184.5,215.9,183.8z"/>
</g>
<g id="Calque_2" class="">
	<path id="tracé_jaune" class="st1" d="M255.3,5c-64.4,0-117.4,34.1-123.4,97h0.3c6.5-49.4,49.3-72.5,101.2-72.5
		S328,67.6,334.5,117h0c3.2-9.9,12.4-17,23.3-17c8.3,0,15.7,4.2,20.1,10.5C369,50.8,317.5,5,255.3,5z"/>
	<g id="tracé_route">
		<g>
			<path class="st5  bounce1" d="M342.6,92.5c0-0.1-0.1-0.4-0.2-0.6l-0.3-0.7l-0.6-1.4c-0.4-1-0.8-1.9-1.2-2.9c-0.9-1.9-1.8-3.8-2.8-5.7
				l12.4-7.5c1.3,2,2.6,4,3.9,6c0.6,1,1.2,2.1,1.8,3.1l0.9,1.6l0.4,0.8c0.2,0.3,0.3,0.5,0.5,1L342.6,92.5z"/>
			<path class="st5  bounce2" d="M326.2,63.4c-4.3-5.7-9-11-14.3-15.8l5.9-7.2c6.2,4.5,12,9.7,17.4,15.3L326.2,63.4z"/>
			<path class="st5  bounce3" d="M294.9,34.6c-6.1-3.8-12.7-6.9-19.5-9.4l1.2-4c7.4,1.7,14.6,4.2,21.5,7.4L294.9,34.6z"/>
			<path class="st5 bounce4" d="M254.1,19.8c-4.4-0.7-8.9-1.1-13.4-1.3c4.5-0.3,9-0.4,13.6-0.3L254.1,19.8z"/>
		</g>
	</g>
</g>
</svg>
