<?xml version="1.0" encoding="utf-8"?>
<!-- Generator: Adobe Illustrator 22.0.1, SVG Export Plug-In . SVG Version: 6.00 Build 0)  -->
<svg version="1.1" xmlns="http://www.w3.org/2000/svg" xmlns:xlink="http://www.w3.org/1999/xlink" x="0px" y="0px"
	 viewBox="0 0 50 50" style="enable-background:new 0 0 50 50;" xml:space="preserve">
<style type="text/css">
	.st0{display:none;}
	.st1{display:inline;}
	.st2{display:inline;fill:#6B3792;}
	.st3{fill:#FFFFFF;}
	.st4{fill:#6B3792;}

.lid {
  -webkit-animation: blink 2.4s infinite;
          animation: blink 2.4s infinite;
}

@-webkit-keyframes blink {
  90% {
    -webkit-transform: none;
            transform: none;
    -webkit-animation-timing-function: ease-in;
            animation-timing-function: ease-in;
  }
  93% {
    -webkit-transform: translateY(15px) scaleY(0);
            transform: translateY(15px) scaleY(0);
  }
  100% {
    -webkit-animation-timing-function: ease-out;
            animation-timing-function: ease-out;
  }
}

@keyframes blink {
  90% {
    -webkit-transform: none;
            transform: none;
    -webkit-animation-timing-function: ease-in;
            animation-timing-function: ease-in;
  }
  93% {
    -webkit-transform: translateY(15px) scaleY(0);
            transform: translateY(15px) scaleY(0);
  }
  100% {
    -webkit-animation-timing-function: ease-out;
            animation-timing-function: ease-out;
  }
}
</style>
<g id="Calque_3" class="st0">
	<rect y="0" class="st1" width="50" height="50"/>
</g>
<g id="Calque_1">
	<g class="st0">
		<path class="st2" d="M49,47c0,1.1-0.9,2-2,2H3c-1.1,0-2-0.9-2-2V3c0-1.1,0.9-2,2-2h44c1.1,0,2,0.9,2,2V47z"/>
	</g>
	<!-- <path class="st3" d="M48.5,10c0,0,2.5,38-38,38l34.6,0c0,0,3.4,0,3.4-3.5C48.5,41.1,48.5,10,48.5,10z"/> -->
	<path class="st3" d="M1.5,40c0,0-2.5-38,38-38H4.9c0,0-3.4,0-3.4,3.5S1.5,40,1.5,40z"/>
	<g>
      <path class="st4" d="M3.5,44c0,0-2.7-40,40-40H7.1c0,0-3.6,0-3.6,3.6S3.5,44,3.5,44z"/>
    </g>
<g>
  <path class="st4" d="M46.5,6c0,0,2.7,40-40,40l36.4,0c0,0,3.6,0,3.6-3.6C46.5,38.7,46.5,6,46.5,6z"/>
</g>
</g>

<g id="Calque_2">
	<g>
		<path class="st3 lid" d="M41.5,23c-3.2-5.5-9.2-9-15.5-9c-6.4,0-12.3,3.4-15.5,9L10,23.7l0.4,0.7c3.2,5.5,9.2,9,15.5,9
			c6.4,0,12.3-3.4,15.5-9l0.4-0.7L41.5,23z M13.4,23.7c1.3-2,3-3.5,5-4.7c-0.7,1.2-1.1,2.7-1.1,4.2c0,2.2,0.8,4.2,2.2,5.8
			C17.1,27.8,14.9,26,13.4,23.7L13.4,23.7z M32.3,29.1c1.4-1.5,2.3-3.6,2.3-5.9c0-0.6-0.1-1.2-0.2-1.7c-0.3,0.7-0.7,1.4-1.3,1.9
			c-0.4,0.4-1,0.6-1.5,0.8c-0.4,0.1-0.7,0.1-1.1,0.1c-2.3,0-4.2-1.9-4.2-4.2c0-0.9,0.3-1.8,0.8-2.5c0.2-0.2,0.4-0.4,0.6-0.6
			c0.9,0.1,1.8,0.3,2.7,0.6c1.1,0.3,2.1,0.8,3,1.3c0.4,0.2,0.8,0.5,1.2,0.7c1.5,1.1,2.9,2.4,3.9,4C36.9,26.1,34.8,27.9,32.3,29.1
			L32.3,29.1z M32.3,29.1"/>
	</g>
</g>
</svg>
