<?xml version="1.0" encoding="utf-8"?>
<!-- Generator: Adobe Illustrator 22.0.1, SVG Export Plug-In . SVG Version: 6.00 Build 0)  -->
<svg version="1.1" xmlns="http://www.w3.org/2000/svg" xmlns:xlink="http://www.w3.org/1999/xlink" x="0px" y="0px"
	 viewBox="0 0 50 50" style="enable-background:new 0 0 50 50;" xml:space="preserve">
<style type="text/css">
	.st0{display:none;}
	.st1{display:inline;}
	.st2{display:none;fill:#FFFFFF;}
	.st3{fill:#FFFFFF;}
	.st4{display:none;fill:#6B3792;}
	.st5{fill:#6B3792;}

	<!-- .lid {
	  -webkit-animation: blink 2.4s infinite;
	          animation: blink 2.4s infinite;
	}
	
	@-webkit-keyframes blink {
	  90% {
	    -webkit-transform: none;
	            transform: none;
	    -webkit-animation-timing-function: ease-in;
	            animation-timing-function: ease-in;
	  }
	  93% {
	    -webkit-transform: translateY(15px) scaleY(0);
	            transform: translateY(15px) scaleY(0);
	  }
	  100% {
	    -webkit-animation-timing-function: ease-out;
	            animation-timing-function: ease-out;
	  }
	}
	
	@keyframes blink {
	  90% {
	    -webkit-transform: none;
	            transform: none;
	    -webkit-animation-timing-function: ease-in;
	            animation-timing-function: ease-in;
	  }
	  93% {
	    -webkit-transform: translateY(15px) scaleY(0);
	            transform: translateY(15px) scaleY(0);
	  }
	  100% {
	    -webkit-animation-timing-function: ease-out;
	            animation-timing-function: ease-out;
	  }
	}
	 -->

</style>
<g id="Calque_3" class="st0">
	<rect class="st1" width="50" height="50"/>
</g>
<g id="Calque_1">
	<polygon class="st2" points="2,49 2,29 20,29 	"/>
</g>
<g id="Calque_2">
	<g id="bordure">
		<path class="st3" d="M3.5,42c0,0-2.5-38,38-38H6.9c0,0-3.4,0-3.4,3.5S3.5,42,3.5,42z"/>
	</g>
	<g id="Calque_5">
		<polygon class="st4" points="3,30 3,33 7,30 		"/>
		<polygon class="st2" points="3,34 8,30 8,34 3,38 		"/>
		<rect x="9" y="30" class="st5" width="5" height="4"/>
		<polygon class="st3" points="15,30 18,30 15,33 		"/>
		<polygon class="st3" points="9,35 13,35 9,39 		"/>
		<polygon class="st4" points="8,35 3,39 8,39 		"/>
		<polygon class="st2" points="3,40 8,40 3,46 		"/>
	</g>
	<g id="Calque_6">
		<polygon class="st2" points="48,49 48,29 30,29 		"/>
		<polygon class="st5" points="47,30 47,33 43,30 		"/>
		<polygon class="st3" points="47,34 42,30 42,34 47,38 		"/>
		<rect x="36" y="30" class="st5" width="5" height="4"/>
		<polygon class="st3" points="35,30 32,30 35,33 		"/>
		<polygon class="st3" points="41,35 37,35 41,39 		"/>
		<polygon class="st5" points="42,35 47,39 42,39 		"/>
		<polygon class="st3" points="47,40 42,40 47,46 		"/>
	</g>
	<g id="Calque_4">
		<g>
			<path class="st3 lid" d="M31.7,23.9c-2.2-0.9-4.3-1.8-6.5-2.7c0.4-1.6,0.8-3.3,1.1-4.9c0.3-1.4-0.9-2.4-2-2.4c0,0-0.1,0-0.1-0.1
				c-2-0.7-4-1.5-5.9-2.4c-0.3-0.1-0.5-0.1-0.8,0v-0.5h-0.8V9.2h-4.2v5.9h4.2v-1.7h0.8v-0.5c1.4,0.7,2.9,1.3,4.3,1.8L21.7,21
				c0,0.2,0,0.5,0,0.7c-0.3,0.5-0.7,0.9-1.1,1.3c-0.4-0.6-0.8-1.3-1-2c-0.5-1.4-2.7-0.8-2.2,0.6c0.5,1.4,1.2,2.6,2.1,3.7
				c0.4,0.6,1.2,0.7,1.8,0.2c0.9-0.8,1.7-1.6,2.4-2.5c0,0,0,0,0,0c2.5,1,5,2.1,7.5,3.1C32.5,26.7,33.1,24.5,31.7,23.9z M17.1,11.9
				c-0.1,0.2-0.1,0.5,0,0.7V13h-0.4v-1.7h0.4V11.9z"/>
			<circle class="st3" cx="27" cy="12.5" r="2.3"/>
		</g>
	</g>
	<g>
		<path class="st5 lid" d="M32.2,23.9c-2.2-0.9-4.3-1.8-6.5-2.7c0.4-1.6,0.8-3.3,1.1-4.9c0.3-1.4-0.9-2.4-2-2.4c0,0-0.1,0-0.1-0.1
			c-2-0.7-4-1.5-5.9-2.4c-0.3-0.1-0.5-0.1-0.8,0v-0.5h-0.8V9.2H13v5.9h4.2v-1.7H18v-0.5c1.4,0.7,2.9,1.3,4.3,1.8L22.2,21
			c0,0.2,0,0.5,0,0.7c-0.3,0.5-0.7,0.9-1.1,1.3c-0.4-0.6-0.8-1.3-1-2c-0.5-1.4-2.7-0.8-2.2,0.6c0.5,1.4,1.2,2.6,2.1,3.7
			c0.4,0.6,1.2,0.7,1.8,0.2c0.9-0.8,1.7-1.6,2.4-2.5c0,0,0,0,0,0c2.5,1,5,2.1,7.5,3.1C33,26.7,33.6,24.5,32.2,23.9z M17.6,11.9
			c-0.1,0.2-0.1,0.5,0,0.7V13h-0.4v-1.7h0.4V11.9z"/>
		<circle class="st5" cx="27.5" cy="12.5" r="2.3"/>
	</g>
</g>
</svg>
