<?xml version="1.0" encoding="utf-8"?>
<!-- Generator: Adobe Illustrator 22.0.1, SVG Export Plug-In . SVG Version: 6.00 Build 0)  -->
<svg version="1.1" xmlns="http://www.w3.org/2000/svg" xmlns:xlink="http://www.w3.org/1999/xlink" x="0px" y="0px"
	 viewBox="0 0 500 500" style="enable-background:new 0 0 500 500;" xml:space="preserve">
<style type="text/css">
	.st0{fill:#016CF6;}
	.st1{fill:#F5B917;}
	.st2{fill:#016CF6;stroke:#016CF6;stroke-width:2.7692;stroke-miterlimit:10;}
	.st3{fill:#016CF6;stroke:#016CF6;stroke-width:1.0589;stroke-miterlimit:10;}
	.st4{fill:#016CF6;stroke:#016CF6;stroke-width:2.9279;stroke-miterlimit:10;}
	.st5{fill:#016CF6;stroke:#016CF6;stroke-width:1.1196;stroke-miterlimit:10;}
	.st6{fill:#016CF6;stroke:#016CF6;stroke-width:2.963;stroke-miterlimit:10;}
	.st7{fill:#FFFFFF;}

		.rotate-in-tl {
	-webkit-animation: rotate-tr 2s cubic-bezier(0.455, 0.030, 0.515, 0.955) infinite alternate-reverse both;
	        animation: rotate-tr 2s cubic-bezier(0.455, 0.030, 0.515, 0.955) infinite alternate-reverse both;2
}
@-webkit-keyframes rotate-tr {
  0% {
    -webkit-transform: rotate(0);
            transform: rotate(0);
    -webkit-transform-origin: 50% 50%;
            transform-origin: 50% 50%;
  }
  100% {
    -webkit-transform: rotate(60deg);
            transform: rotate(60deg);
    -webkit-transform-origin: 50% 50%;
            transform-origin: 50% 50%;
  }
}
@keyframes rotate-tr {
  0% {
    -webkit-transform: rotate(0);
            transform: rotate(0);
    -webkit-transform-origin: 50% 50%;
            transform-origin: 50% 50%;
  }
  100% {
    -webkit-transform: rotate(60deg);
            transform: rotate(60deg);
    -webkit-transform-origin: 50% 50%;
            transform-origin: 50% 50%;
  }
}


.vibrate-2 {
	-webkit-animation: vibrate-2 0.3s linear infinite both;
	        animation: vibrate-2 0.3s linear infinite both;
}
@-webkit-keyframes vibrate-2 {
  0% {
    -webkit-transform: translate(0);
            transform: translate(0);
  }
  20% {
    -webkit-transform: translate(2px, -2px);
            transform: translate(2px, -2px);
  }
  40% {
    -webkit-transform: translate(2px, 2px);
            transform: translate(2px, 2px);
  }
  60% {
    -webkit-transform: translate(-2px, 2px);
            transform: translate(-2px, 2px);
  }
  80% {
    -webkit-transform: translate(-2px, -2px);
            transform: translate(-2px, -2px);
  }
  100% {
    -webkit-transform: translate(0);
            transform: translate(0);
  }
}
@keyframes vibrate-2 {
  0% {
    -webkit-transform: translate(0);
            transform: translate(0);
  }
  20% {
    -webkit-transform: translate(2px, -2px);
            transform: translate(2px, -2px);
  }
  40% {
    -webkit-transform: translate(2px, 2px);
            transform: translate(2px, 2px);
  }
  60% {
    -webkit-transform: translate(-2px, 2px);
            transform: translate(-2px, 2px);
  }
  80% {
    -webkit-transform: translate(-2px, -2px);
            transform: translate(-2px, -2px);
  }
  100% {
    -webkit-transform: translate(0);
            transform: translate(0);
  }
}
.jello-horizontal {
	-webkit-animation: jello-horizontal 0.9s 2 both;
	        animation: jello-horizontal 0.9s 2 both;
}

@-webkit-keyframes jello-horizontal {
  0% {
    -webkit-transform: scale3d(1, 1, 1);
            transform: scale3d(1, 1, 1);
  }
  30% {
    -webkit-transform: scale3d(1.25, 0.75, 1);
            transform: scale3d(1.25, 0.75, 1);
  }
  40% {
    -webkit-transform: scale3d(0.75, 1.25, 1);
            transform: scale3d(0.75, 1.25, 1);
  }
  50% {
    -webkit-transform: scale3d(1.15, 0.85, 1);
            transform: scale3d(1.15, 0.85, 1);
  }
  65% {
    -webkit-transform: scale3d(0.95, 1.05, 1);
            transform: scale3d(0.95, 1.05, 1);
  }
  75% {
    -webkit-transform: scale3d(1.05, 0.95, 1);
            transform: scale3d(1.05, 0.95, 1);
  }
  100% {
    -webkit-transform: scale3d(1, 1, 1);
            transform: scale3d(1, 1, 1);
  }
}
@keyframes jello-horizontal {
  0% {
    -webkit-transform: scale3d(1, 1, 1);
            transform: scale3d(1, 1, 1);
  }
  30% {
    -webkit-transform: scale3d(1.25, 0.75, 1);
            transform: scale3d(1.25, 0.75, 1);
  }
  40% {
    -webkit-transform: scale3d(0.75, 1.25, 1);
            transform: scale3d(0.75, 1.25, 1);
  }
  50% {
    -webkit-transform: scale3d(1.15, 0.85, 1);
            transform: scale3d(1.15, 0.85, 1);
  }
  65% {
    -webkit-transform: scale3d(0.95, 1.05, 1);
            transform: scale3d(0.95, 1.05, 1);
  }
  75% {
    -webkit-transform: scale3d(1.05, 0.95, 1);
            transform: scale3d(1.05, 0.95, 1);
  }
  100% {
    -webkit-transform: scale3d(1, 1, 1);
            transform: scale3d(1, 1, 1);
  }
}


</style>
<g id="Calque_1">
	<path id="localisation_bleu" class="st0" d="M320,260.4c0-19.8,16.1-35.9,35.9-35.9c7.6,0,14.7,2.4,20.5,6.4
		c30.7-46.2,27.6-109-11.2-152.2c-46-51.1-124.7-55.2-175.8-9.2c-10,9-18.2,19.3-24.5,30.3c0,0-27.9,39.3-60.5,212.7
		c15.3-1.2,29.6-2.6,43-3.9c-0.2-1.4-0.3-2.8-0.3-4.2c0-19.8,16.1-35.9,35.9-35.9c18.2,0,33.3,13.6,35.6,31.2
		c33.8-5.2,57.4-10.4,73.5-14.7c10.7-1.7,21.3-4.8,31.5-9.3C321.2,271.1,320,265.9,320,260.4z M212,214.8
		c-29.1-32.4-26.6-82.2,5.8-111.4c32.4-29.1,82.2-26.5,111.4,5.9c29.1,32.4,26.5,82.2-5.8,111.4C291,249.8,241.2,247.2,212,214.8z"
		/>
	<path id="localisation_jaune" class="st1" d="M310.2,258.8c0-19.8,16.1-35.9,35.9-35.9c7.6,0,14.7,2.4,20.5,6.4
		c30.7-46.2,27.6-109-11.2-152.2C309.3,26.1,230.6,22,179.5,68c-10,9-18.2,19.3-24.5,30.3c0,0-27.9,39.3-60.5,212.7
		c15.3-1.2,29.6-2.6,43-3.9c-0.2-1.4-0.3-2.8-0.3-4.2c0-19.8,16.1-35.9,35.9-35.9c18.2,0,33.3,13.6,35.6,31.2
		c33.8-5.2,57.4-10.4,73.5-14.7c10.7-1.7,21.3-4.8,31.5-9.3C311.4,269.5,310.2,264.3,310.2,258.8z M202.3,213.2
		c-29.1-32.4-26.6-82.2,5.8-111.4c32.4-29.1,82.2-26.5,111.4,5.9c29.1,32.4,26.5,82.2-5.8,111.4
		C281.2,248.2,231.4,245.5,202.3,213.2z"/>
</g>
<g id="Calque_6">
	<circle id="point_jaune" class="st1 jello-horizontal" cx="264.5" cy="161" r="57.3"/>
</g>
<g id="Calque_2">
	<path id="roue_gauche" class="st2 vibrate-2" d="M202.7,327.6c-10.5,15-31.2,18.7-46.3,8.2c-5.8-4-9.9-9.6-12.1-15.8
		c0,10.5,4.9,20.8,14.2,27.3c15,10.5,35.8,6.9,46.3-8.2c6.5-9.3,7.6-20.7,4-30.5C208.6,315.2,206.7,321.8,202.7,327.6z"/>
	<path id="clou_gauche" class="st3 vibrate-2" d="M167.7,311.1c0.7-7,6.9-12.1,13.9-11.4c2.7,0.3,5.1,1.3,7,3c-2-3.5-5.5-6-9.8-6.4
		c-7-0.7-13.2,4.4-13.9,11.4c-0.4,4.3,1.4,8.3,4.4,10.9C168,316.3,167.4,313.7,167.7,311.1z"/>
</g>
<g id="Calque_5">
	<path id="roue_droit_3_" class="st4 vibrate-2" d="M388.6,261.2c-2.7,19.2-20.5,32.6-39.7,29.9c-7.4-1-13.9-4.3-19-9c5,9.9,14.6,17.3,26.5,19
		c19.2,2.7,37-10.7,39.7-29.9c1.7-11.8-2.8-23.1-10.9-30.7C388.3,246.6,389.7,253.8,388.6,261.2z"/>
	<path id="clou_droit_3_" class="st5 vibrate-2" d="M347.7,262.4c-2.7-6.9,0.7-14.7,7.6-17.4c2.7-1,5.4-1.2,8-0.6c-3.5-2.4-8.1-3-12.4-1.3
		c-6.9,2.7-10.3,10.5-7.6,17.4c1.7,4.3,5.3,7.2,9.4,8.2C350.6,267.2,348.8,265,347.7,262.4z"/>
</g>
<g id="Calque_3">
	<path id="tracé_jaune" class="st6 rotate-in-tl" d="M189.4,443.7C89.6,404.8,29.1,321,59.2,222l0.4,0.2c-21,78.8,30.8,139.7,111.1,171.1
		s170.5-0.6,211.5-71.5l0,0c-1.3,16.9,8.5,33.3,25.4,39.9c12.9,5,26.9,3.2,37.8-3.8C394.2,443,285.7,481.3,189.4,443.7z"/>
	<g id="tracé_route">
		<g>
			<path class="st7 rotate-in-tl" d="M398.4,382.2l-0.7,0.7l-0.6,0.5l-1.2,1l-2.4,1.9c-1.6,1.3-3.2,2.5-4.8,3.6c-3.2,2.4-6.4,4.6-9.7,6.8
				l-14.2-19.2c2.7-2.3,5.3-4.6,7.9-6.9c1.3-1.2,2.5-2.4,3.7-3.6l1.8-1.8l0.8-0.9l0.4-0.4c0.1-0.1,0.3-0.3,0.3-0.3L398.4,382.2z"/>
			<path class="st7 rotate-in-tl" d="M344.8,415.4c-11.8,5.2-24.1,9.5-36.5,12.6l-4.5-14.7c11.2-4.2,21.9-9.4,32.1-15.4L344.8,415.4z"/>
			<path class="st7 rotate-in-tl" d="M270.3,433.7c-12.7,0.7-25.5,0.1-38-1.8l0.6-6.8c12.2,0.4,24.3-0.4,36.2-2.5L270.3,433.7z"/>
			<path class="st7 rotate-in-tl" d="M195.8,422.9c-7.1-2.5-14-5.4-20.7-8.6c7,2.4,14.2,4.5,21.4,6.1L195.8,422.9z"/>
		</g>
	</g>
</g>
<g id="Calque_4">
</g>
</svg>
