<?xml version="1.0" encoding="utf-8"?>
<!-- Generator: Adobe Illustrator 22.0.1, SVG Export Plug-In . SVG Version: 6.00 Build 0)  -->
<svg version="1.1" xmlns="http://www.w3.org/2000/svg" xmlns:xlink="http://www.w3.org/1999/xlink" x="0px" y="0px"
	 viewBox="0 0 50 50" style="enable-background:new 0 0 50 50;" xml:space="preserve">
<style type="text/css">
	.st0{display:none;}
	.st1{display:inline;}
	.st2{fill:#FFFFFF;}
	.st3{fill:#6B3792;}
	.st4{fill:none;stroke:#FFFFFF;stroke-width:0.6918;stroke-miterlimit:10;}
	.st5{fill:#FFFFFF;stroke:#FFFFFF;stroke-width:3.843556e-04;stroke-miterlimit:10;}
	.st6{fill:none;stroke:#FFFFFF;stroke-width:0.7303;stroke-miterlimit:10;}
	.st7{fill:none;stroke:#FFFFFF;stroke-width:0.6345;stroke-miterlimit:10;}
		.background-v{
		stroke-dasharray: 1000;
		stroke-dashoffset: 0;
		animation: dash 15s linear alternate infinite;
	}

		@keyframes dash {
		  from {
		    stroke-dashoffset: 0;
		  }
		  to {
		    stroke-dashoffset: 1000;
		  }
	}

</style>
<g id="Calque_2" class="st0">
	<rect class="st1" width="50" height="50"/>
</g>
<g id="bordure">
	<path class="st2" d="M2.5,40c0,0-2.5-38,38-38H5.9c0,0-3.4,0-3.4,3.5S2.5,40,2.5,40z"/>
</g>
<g id="Calque_1">
	<path class="st2" d="M19.9,13.7L15,15c-0.1,0-0.1,0-0.1,0.1l-3.5,4.2c0,0.1-0.1,0.1-0.1,0.2c0,0,0,0.1,0,0.1c0,0.1,0.1,0.2,0.2,0.2
		l4.9,1.4c0,1,0.2,2,0.7,2.7l-1.6,1.9c-0.1,0.1-0.1,0.3,0,0.4l1.5,1.4c0.1,0.1,0.1,0.1,0.2,0.1c0.1,0,0.2,0,0.2-0.1l1.7-1.9
		c0.4,0.2,1.5,0.5,3.2,0.1l1.8,4.9c0,0.1,0.1,0.2,0.2,0.2c0.1,0,0.2,0,0.3-0.1l3.9-3.8c0,0,0.1-0.1,0.1-0.2l0.9-5
		c1.1-0.9,2.2-2,3.2-3.2c6.2-6.9,7.1-12.4,7.1-15c0-0.9-0.1-1.3-0.1-1.4c0-0.1-0.1-0.2-0.2-0.2C39.3,2.2,32,1,22.5,10.6
		C22.5,10.6,21.2,11.9,19.9,13.7L19.9,13.7z M25.2,14.1c0-1.7,1.3-3,3-3c1.7,0,3,1.3,3,3c0,1.7-1.3,3-3,3
		C26.6,17.1,25.2,15.8,25.2,14.1L25.2,14.1z M25.2,14.1"/>
	<path class="st3" d="M40.9,2.5c0-0.1-0.1-0.2-0.2-0.2C40.3,2.2,33,1,23.5,10.6c0,0-1.3,1.3-2.6,3.1L16,15c-0.1,0-0.1,0-0.1,0.1
		l-3.5,4.2c0,0.1-0.1,0.1-0.1,0.2c0,0,0,0.1,0,0.1c0,0.1,0.1,0.2,0.2,0.2l4.9,1.4c0,1,0.2,2,0.7,2.7l-1.6,1.9
		c-0.1,0.1-0.1,0.3,0,0.4l1.5,1.4c0.1,0.1,0.1,0.1,0.2,0.1c0.1,0,0.2,0,0.2-0.1l1.7-1.9c0.4,0.2,1.5,0.5,3.2,0.1l1.8,4.9
		c0,0.1,0.1,0.2,0.2,0.2c0.1,0,0.2,0,0.3-0.1l3.9-3.8c0,0,0.1-0.1,0.1-0.2l0.9-5c1.1-0.9,2.2-2,3.2-3.2c6.2-6.9,7.1-12.4,7.1-15
		C41,3,40.9,2.5,40.9,2.5z"/>
</g>
<g id="Calque_3">
	<g>
		<g id="G_1_">
			<path class="st4 background-v" d="M21.1,18.6l3.9-4.4c0.1-0.2,0.4-0.2,0.5,0l0.2,0.2c0.2,0.1,0.2,0.4,0,0.5l-3.5,3.8c-0.1,0.2-0.1,0.4,0,0.5
				l3.5,3.1c0.2,0.1,0.4,0.1,0.5,0l3.4-3.8c0.1-0.2,0.1-0.4,0-0.5L28,16.4c-0.2-0.1-0.4-0.1-0.5,0l-1.7,1.9"/>
		</g>
		<circle class="st5" cx="21.1" cy="18.6" r="0.3"/>
		<circle class="st5" cx="25.7" cy="18.4" r="0.3"/>
	</g>
	<g id="point_O_blanc_1_">
		<path class="st2 background-v" d="M32.8,13.9c0.1,0.1,0.1,0.2,0,0.2l-0.2,0.2c-0.1,0.1-0.2,0.1-0.2,0L32.1,14c-0.1-0.1-0.1-0.2,0-0.2l0.2-0.2
			c0.1-0.1,0.2-0.1,0.2,0L32.8,13.9z"/>
	</g>
	<g id="O_1_">
		<path class="st6 background-v" d="M35.3,12.5C35.3,12.5,35.3,12.6,35.3,12.5L31.3,17c0,0,0,0-0.1,0l-4.7-4.3c0,0,0,0,0-0.1l3.9-4.4
			c0,0,0,0,0.1,0L35.3,12.5z"/>
	</g>
</g>
<g id="Calque_4">
	<path class="st2" d="M2,43.4V47h1v-3.3c0,0,23.5-18.3,46,0v-0.3C26,23.4,2,43.4,2,43.4z"/>
	<path class="st3" d="M3,43.5V47h1v-3.2c0,0,23-17.6,45,0v-0.3C26.5,24.4,3,43.5,3,43.5z"/>
	<g id="DESIGN_mauve_1_">
		<path class="st2" d="M11.6,41.4h2.5c0.6,0,1.1,0.1,1.5,0.3c0.4,0.2,0.8,0.5,1,0.9C16.9,43,17,43.5,17,44c0,0.5-0.1,1-0.4,1.4
			c-0.2,0.4-0.6,0.7-1,0.9c-0.4,0.2-1,0.3-1.5,0.3h-2.5V41.4z M14,45.4c0.4,0,0.8-0.1,1.1-0.4c0.3-0.3,0.4-0.6,0.4-1.1
			c0-0.4-0.1-0.8-0.4-1.1c-0.3-0.3-0.6-0.4-1.1-0.4h-0.9v2.9H14z"/>
		<path class="st2" d="M22,45.5v1.1h-4.2v-5.2h4.1v1.1h-2.6v0.9h2.3v1.1h-2.3v1H22z"/>
		<path class="st2" d="M23.4,46.6c-0.4-0.1-0.7-0.2-1-0.4l0.5-1.1c0.2,0.2,0.5,0.3,0.8,0.4c0.3,0.1,0.6,0.1,0.9,0.1
			c0.6,0,0.9-0.1,0.9-0.4c0-0.1-0.1-0.3-0.2-0.3c-0.2-0.1-0.4-0.1-0.8-0.2c-0.4-0.1-0.7-0.2-1-0.3c-0.3-0.1-0.5-0.3-0.7-0.5
			c-0.2-0.2-0.3-0.5-0.3-0.9c0-0.3,0.1-0.6,0.3-0.9c0.2-0.3,0.4-0.5,0.8-0.6c0.3-0.1,0.8-0.2,1.3-0.2c0.3,0,0.7,0,1,0.1
			c0.3,0.1,0.6,0.2,0.9,0.3l-0.5,1.1c-0.5-0.3-1-0.4-1.5-0.4c-0.3,0-0.5,0-0.6,0.1c-0.1,0.1-0.2,0.2-0.2,0.3c0,0.1,0.1,0.2,0.2,0.3
			c0.2,0.1,0.4,0.1,0.8,0.2c0.4,0.1,0.7,0.2,1,0.3c0.3,0.1,0.5,0.3,0.7,0.5c0.2,0.2,0.3,0.5,0.3,0.9c0,0.3-0.1,0.6-0.3,0.9
			c-0.2,0.3-0.4,0.5-0.8,0.6c-0.3,0.2-0.8,0.2-1.3,0.2C24.3,46.7,23.8,46.7,23.4,46.6z"/>
		<path class="st2" d="M27.7,41.4h1.5v5.2h-1.5V41.4z"/>
		<path class="st2" d="M33.8,43.9h1.3v2.2c-0.3,0.2-0.6,0.4-1,0.5s-0.8,0.2-1.2,0.2c-0.5,0-1-0.1-1.5-0.3c-0.4-0.2-0.8-0.6-1-1
			C30.1,45,30,44.5,30,44s0.1-1,0.4-1.4c0.2-0.4,0.6-0.7,1-1c0.4-0.2,0.9-0.3,1.5-0.3c0.5,0,0.9,0.1,1.3,0.2s0.7,0.4,1,0.7l-0.9,0.9
			c-0.4-0.4-0.8-0.6-1.3-0.6c-0.4,0-0.8,0.1-1.1,0.4c-0.3,0.3-0.4,0.6-0.4,1.1c0,0.3,0.1,0.5,0.2,0.8c0.1,0.2,0.3,0.4,0.5,0.5
			c0.2,0.1,0.5,0.2,0.8,0.2c0.3,0,0.6-0.1,0.8-0.2V43.9z"/>
		<path class="st2" d="M41,41.4v5.2h-1.2l-2.3-2.8v2.8H36v-5.2h1.2l2.3,2.8v-2.8H41z"/>
	</g>
	<g id="DESIGN_mauve">
		<path class="st3" d="M11,40.9h2.5c0.6,0,1.1,0.1,1.5,0.3c0.4,0.2,0.8,0.5,1,0.9c0.2,0.4,0.4,0.9,0.4,1.4c0,0.5-0.1,1-0.4,1.4
			c-0.2,0.4-0.6,0.7-1,0.9c-0.4,0.2-1,0.3-1.5,0.3H11V40.9z M13.4,45c0.4,0,0.8-0.1,1.1-0.4c0.3-0.3,0.4-0.6,0.4-1.1
			c0-0.4-0.1-0.8-0.4-1.1c-0.3-0.3-0.6-0.4-1.1-0.4h-0.9V45H13.4z"/>
		<path class="st3" d="M21.4,45v1.1h-4.2v-5.2h4.1v1.1h-2.6V43H21v1.1h-2.3v1H21.4z"/>
		<path class="st3" d="M22.8,46.1c-0.4-0.1-0.7-0.2-1-0.4l0.5-1.1c0.2,0.2,0.5,0.3,0.8,0.4c0.3,0.1,0.6,0.1,0.9,0.1
			c0.6,0,0.9-0.1,0.9-0.4c0-0.1-0.1-0.3-0.2-0.3c-0.2-0.1-0.4-0.1-0.8-0.2c-0.4-0.1-0.7-0.2-1-0.3c-0.3-0.1-0.5-0.3-0.7-0.5
			C22,43.2,22,42.9,22,42.5c0-0.3,0.1-0.6,0.3-0.9c0.2-0.3,0.4-0.5,0.8-0.6c0.3-0.1,0.8-0.2,1.3-0.2c0.3,0,0.7,0,1,0.1
			c0.3,0.1,0.6,0.2,0.9,0.3l-0.5,1.1c-0.5-0.3-1-0.4-1.5-0.4c-0.3,0-0.5,0-0.6,0.1c-0.1,0.1-0.2,0.2-0.2,0.3c0,0.1,0.1,0.2,0.2,0.3
			c0.2,0.1,0.4,0.1,0.8,0.2c0.4,0.1,0.7,0.2,1,0.3c0.3,0.1,0.5,0.3,0.7,0.5c0.2,0.2,0.3,0.5,0.3,0.9c0,0.3-0.1,0.6-0.3,0.9
			c-0.2,0.3-0.4,0.5-0.8,0.6c-0.3,0.2-0.8,0.2-1.3,0.2C23.6,46.3,23.2,46.2,22.8,46.1z"/>
		<path class="st3" d="M27.1,40.9h1.5v5.2h-1.5V40.9z"/>
		<path class="st3" d="M33.1,43.4h1.3v2.2c-0.3,0.2-0.6,0.4-1,0.5c-0.4,0.1-0.8,0.2-1.2,0.2c-0.5,0-1-0.1-1.5-0.3
			c-0.4-0.2-0.8-0.6-1-1c-0.2-0.4-0.4-0.9-0.4-1.4s0.1-1,0.4-1.4c0.2-0.4,0.6-0.7,1-1c0.4-0.2,0.9-0.3,1.5-0.3
			c0.5,0,0.9,0.1,1.3,0.2s0.7,0.4,1,0.7l-0.9,0.9c-0.4-0.4-0.8-0.6-1.3-0.6c-0.4,0-0.8,0.1-1.1,0.4c-0.3,0.3-0.4,0.6-0.4,1.1
			c0,0.3,0.1,0.5,0.2,0.8c0.1,0.2,0.3,0.4,0.5,0.5c0.2,0.1,0.5,0.2,0.8,0.2c0.3,0,0.6-0.1,0.8-0.2V43.4z"/>
		<path class="st3" d="M40.4,40.9v5.2h-1.2l-2.3-2.8v2.8h-1.5v-5.2h1.2l2.3,2.8v-2.8H40.4z"/>
	</g>
</g>
<g id="Calque_5">
	<g id="triangle">
		<path class="st7 background-v" d="M10.9,26.8l5.9,6.1c0.1,0.1,0.1,0.1,0.1-0.1l-1.1-4.7c0-0.1-0.1-0.2-0.3-0.3L12.6,27c-0.1,0-0.1,0-0.1,0.1
			l2.1,2.2"/>
	</g>
</g>
</svg>
